<?xml version="1.0" encoding="UTF-8"?>
<!-- Created with Inkscape (http://www.inkscape.org/) -->
<svg width="109.73mm" height="23.813mm" version="1.1" viewBox="0 0 109.73 23.813" xmlns="http://www.w3.org/2000/svg" xmlns:cc="http://creativecommons.org/ns#" xmlns:dc="http://purl.org/dc/elements/1.1/" xmlns:rdf="http://www.w3.org/1999/02/22-rdf-syntax-ns#">
 <metadata>
  <rdf:RDF>
   <cc:Work rdf:about="">
    <dc:format>image/svg+xml</dc:format>
    <dc:type rdf:resource="http://purl.org/dc/dcmitype/StillImage"/>
    <dc:title/>
   </cc:Work>
  </rdf:RDF>
 </metadata>
 <g transform="translate(-34.471 -109.15)" fill="none" stroke="#d500f9" stroke-linejoin="round">
  <path d="m122.78 109.44-4.415 0.064v22.987h-3.1225c-1.023 0-1.8046-0.63526-2.3339-1.287-0.52924-0.65179-0.79493-1.3053-0.79493-1.3053l-2e-3 -3e-3v-1e-3s-6.4617-13.262-8.6154-17.683c-0.54303-1.1146-1.0885-1.6869-1.6344-1.911s-1.0741-0.0707-1.4961 0.21799c-0.84379 0.57732-1.3768 1.693-1.3768 1.693l-0.0016 1e-3v1e-3s-6.4599 15.026-7.5391 17.684c-0.53162 1.3094-1.3217 1.953-1.973 2.2739-0.65131 0.32084-1.1558 0.31849-1.1558 0.31849h-3.1224v-22.988h-3.3387c-1.1307 0-1.9643 0.69093-2.512 1.3654-0.54762 0.67442-0.82036 1.3484-0.82036 1.3484-0.0016 4e-3 -5.383 12.375-7.5375 17.682-0.53502 1.3178-1.0745 1.9631-1.5358 2.1903-0.23066 0.11363-0.4381 0.12963-0.64389 0.0835-0.20578-0.0461-0.41069-0.15967-0.60414-0.3185-0.7738-0.63532-1.3196-1.9554-1.3196-1.9554v-1e-3s-6.4629-15.034-7.5375-17.681c-0.54524-1.343-1.372-2.0269-2.0668-2.3692-0.69476-0.34225-1.2671-0.3446-1.2671-0.3446h-3.3371v23.077h0.21463v-22.899h3.1225s0.50451-2e-3 1.1558 0.31849c0.65131 0.32085 1.4414 0.96313 1.973 2.2726 1.0791 2.658 7.5391 17.684 7.5391 17.684 0.0011 3e-3 0.52984 1.3331 1.3704 2.0232 0.21037 0.17273 0.4442 0.30666 0.70112 0.36418 0.25693 0.0576 0.53671 0.032 0.81082-0.10312 0.54823-0.27007 1.0862-0.95101 1.628-2.2856 2.1526-5.302 7.5375-17.681 7.5375-17.681v-1e-3l0.0016-1e-3s0.26568-0.65225 0.79492-1.304c0.52924-0.65178 1.3093-1.287 2.3323-1.287h3.124v22.987h3.3371s0.57234-1e-3 1.2671-0.3433c0.69476-0.34225 1.5216-1.0262 2.0668-2.3692 1.0744-2.6464 7.5339-17.673 7.5359-17.678l0.0016-3e-3c0.0024-5e-3 0.54339-1.0932 1.3132-1.6199 0.38574-0.26391 0.79865-0.38615 1.2623-0.1958 0.46368 0.19035 0.9956 0.72258 1.5294 1.8183 2.1537 4.4207 8.6154 17.683 8.6154 17.683 2e-3 6e-3 0.27167 0.67006 0.81717 1.3419 0.54762 0.67441 1.3828 1.3654 2.5136 1.3654h3.3371v-12.377h4.2004s1.6373 1e-3 3.2783-0.67225c1.641-0.67365 3.291-2.0395 3.291-4.7213s-1.6488-4.0618-3.2894-4.7514c-1.6406-0.68953-3.2783-0.70487-3.2783-0.70487zm-2e-3 0.17622s1.5929 0.017 3.1829 0.68529c1.59 0.66825 3.1717 1.9718 3.1717 4.5947 0 2.6229-1.5805 3.9095-3.1702 4.5621-1.5896 0.65256-3.1829 0.65396-3.1829 0.65396h-4.2004v-10.433z" color="#000000" color-rendering="auto" dominant-baseline="auto" image-rendering="auto" shape-rendering="auto" solid-color="#000000" stroke-width=".58545" style="font-feature-settings:normal;font-variant-alternates:normal;font-variant-caps:normal;font-variant-ligatures:normal;font-variant-numeric:normal;font-variant-position:normal;isolation:auto;mix-blend-mode:normal;shape-padding:0;text-decoration-color:#000000;text-decoration-line:none;text-decoration-style:solid;text-indent:0;text-orientation:mixed;text-transform:none;white-space:normal"/>
  <path d="m133.61 132.59v-23.083h4.0885s6.1327 0 6.1327 5.3269c0 5.3269-6.1327 5.3269-6.1327 5.3269h-4.0885" stroke-linecap="round" stroke-width=".72398"/>
  <path d="m34.852 109.53v23.052s12.393 0 12.393-11.526c0-11.526-12.393-11.526-12.393-11.526z" stroke-linecap="square" stroke-opacity=".98905" stroke-width=".76098" style="paint-order:normal"/>
 </g>
</svg>
